<svg xmlns="http://www.w3.org/2000/svg" width="1440" height="2116" fill="none"><g stroke="#959FB2" stroke-miterlimit="10" opacity=".15"><path d="M415.38 762.881l-76.755 228.131 291.871-196.037-215.116-32.094z"/><path d="M630.495 794.975V593.574L415.379 762.882l215.116 32.093zm-291.87 196.037l291.871-196.036 52.783 173.168-344.654 22.868z"/><path d="M630.492 593.575v201.4l184.943-226.131-184.943 24.731zm184.943-24.731L630.492 794.975l52.783 173.168 132.16-399.299zM683.278 968.143l297.631-199.649-165.471-199.65-132.16 399.299zm-52.786-374.569l92.472-161.373 92.471 136.642-184.943 24.731z"/><path d="M722.966 432.201l-92.471 161.373-215.116 169.307 307.587-330.68zm-.001 0l-307.587 330.68-27.085-156.606 334.672-174.074z"/><path d="M388.295 606.276l27.085 156.606-76.755 228.13 49.67-384.736z"/><path d="M388.295 606.276L185.039 794.975l153.586 196.037 49.67-384.736zM185.039 794.975l4.147-300.673 199.109 111.973-203.256 188.7z"/><path d="M189.184 494.302l533.781-62.101-334.672 174.074-199.109-111.973zm533.781-62.101l178.881-73.561-86.41 210.203-92.471-136.642zm178.882-73.561l79.062 409.853-165.471-199.65 86.409-210.203zM338.625 991.012l117.452 130.128 227.202-152.996-344.654 22.868z"/><path d="M456.074 1121.14l428.656-76.51-201.453-76.486-227.203 152.996zm227.204-152.997l297.631-199.65-96.177 276.137-201.454-76.487zm218.57-609.503l300.242 135.662-221.181 274.191-79.061-409.853z"/><path d="M901.848 358.641l4.436-105.692 295.806 241.353-300.242-135.661zm4.434-105.692L722.965 432.201l178.881-73.561 4.436-105.691z"/><path d="M906.284 252.949l-342.549 57.768 159.232 121.484 183.317-179.252zm-342.551 57.769L189.184 494.302l533.781-62.101-159.232-121.483zm320.998 733.912l310.559-294.313-214.382 18.176-96.177 276.137zm317.349-550.328l-6.79 256.015-214.384 18.176 221.174-274.191zM906.286 252.95l341.754-50.195-45.95 291.548L906.286 252.95zm0-.001l43.52-103.407 298.234 53.212-341.754 50.195z"/><path d="M949.804 149.542L563.735 310.717l342.549-57.768 43.52-103.407z"/><path d="M949.802 149.542l-98.9-145.383 397.138 198.595-298.238-53.212z"/><path d="M850.904 4.16l98.9 145.382-386.069 161.175L850.904 4.159zM563.733 310.717L555.629 94.84 850.903 4.16l-287.17 306.557z"/><path d="M555.629 94.84l8.104 215.877-374.549 183.585L555.629 94.84zM185.041 794.976L39.156 1117.8l299.471-126.787-153.586-196.037z"/><path d="M39.156 1117.8l416.923 3.34-117.452-130.128L39.157 1117.8zm0 0l550.809 158.88-133.887-155.54-416.922-3.34z"/><path d="M456.074 1121.14l428.656-76.51-294.769 232.05-133.887-155.54zm746.006-626.838l218.79 137.102-225.58 118.913 6.79-256.015z"/><path d="M1248.04 202.755l-45.95 291.548 218.78 137.102-172.83-428.65z"/><path d="M1248.04 202.755l237.33 345.182-64.5 83.468-172.83-428.65zm0-.001l187.64-27.711 49.69 372.893-237.33-345.182z"/><path d="M1435.68 175.043L850.902 4.159l397.138 198.595 187.64-27.711zm0 0l278.1 207.286-228.41 165.607-49.69-372.893z"/><path d="M1435.68 175.043l167.07-192.71 111.03 399.996-278.1-207.286z"/><path d="M1602.75-17.666l-167.07 192.71L850.902 4.16l751.848-21.826zm-181.88 649.07l311.95 114.444-247.45-197.912-64.5 83.468zm-225.58 118.913l537.52-4.469-311.94-114.444-225.58 118.913zM884.731 1044.63l848.089-298.782-537.53 4.47-310.559 294.312zm0 0l605.939-39.41 242.15-259.372-848.089 298.782zm-294.769 232.05l410.068 14.99-115.299-247.04-294.769 232.05z"/><path d="M884.731 1044.63l605.939-39.41-490.64 286.45-115.299-247.04zm-294.77 232.05l-89.044 197.27 499.113-182.28-410.069-14.99z"/><path d="M1490.67 1005.22l-138.53 473.94-352.11-187.49 490.64-286.45z"/><path d="M1352.14 1479.16l-352.11-187.49-499.113 182.28 851.223 5.21zm0 0l380.68-733.312-242.15 259.372-138.53 473.94z"/><path d="M500.921 1473.95l89.044-197.27L39.156 1117.8l461.765 356.15zM189.188 494.302L-201.758 358.64l386.799 436.335 4.147-300.673z"/><path d="M39.157 1117.8l145.885-322.825-386.8-436.335L39.157 1117.8z"/><path d="M-201.758 358.64l390.946 135.662L555.633 94.84l-757.391 263.8z"/><path d="M-201.758 358.64L72.909-108 555.633 94.84l-757.391 263.8zM72.904-108L-499.355 88.707l297.592 269.933L72.904-108zM1732.82 745.848l263.99 482.022-644.67 251.29 380.68-733.312zM500.917 1473.95l68.248 197.26 782.975-192.05-851.223-5.21zm1495.893-246.08l-315.39 402.53-329.28-151.24 644.67-251.29z"/><path d="M569.164 1671.21l1112.256-40.81-329.28-151.24-782.976 192.05zM39.148 1117.8L-84 1786.86l584.914-312.91L39.148 1117.8zm461.766 356.15L-84 1786.86l653.161-115.65-68.247-197.26zM-84 1786.86l311.192 328.29 341.969-443.94L-84 1786.86zm653.164-115.65l603.656 265.94 508.6-306.75-1112.256 40.81z"/><path d="M569.169 1671.21l-341.97 443.94 945.621-177.99-603.651-265.95zm1112.251-40.81l210.17 166.34-718.77 140.41 508.6-306.75zM-201.763 358.64l-271.73 809.51 512.645-50.35-240.915-759.16z"/><path d="M39.152 1117.8l-123.148 669.06-389.497-618.71 512.645-50.35z"/></g></svg>